<svg width="24" height="24" viewBox="0 0 24 24" fill="none" xmlns="http://www.w3.org/2000/svg">
<path d="M20.9669 3.20999H3.03313C1.3607 3.20999 0 4.57069 0 6.24312V17.7567C0 19.4292 1.3607 20.7899 3.03313 20.7899H20.9669C22.6393 20.7899 24 19.4292 24 17.7567V6.24312C24 4.57069 22.6393 3.20999 20.9669 3.20999ZM20.493 5.16651L12 11.7273L3.507 5.16651H20.493ZM20.9669 18.8335H3.03313C2.43952 18.8335 1.95652 18.3505 1.95652 17.7569V6.44112L11.402 13.7376C11.578 13.8737 11.7891 13.9416 12 13.9416C12.2109 13.9416 12.422 13.8737 12.598 13.7376L22.0435 6.44112V17.7567C22.0435 18.3505 21.5605 18.8335 20.9669 18.8335Z" fill="#0E6E6D"/>
</svg>
