<svg width="25" height="24" viewBox="0 0 25 24" fill="none" xmlns="http://www.w3.org/2000/svg">
<path d="M7.85766 0.390991H17.4754C21.0977 0.390991 24.0954 3.25022 24.0954 6.70512V16.8316C24.0954 20.2865 21.0977 23.1457 17.4754 23.1457H7.85766C4.2354 23.1457 1.23766 20.2865 1.23766 16.8316V6.70512C1.23766 3.25022 4.2354 0.390991 7.85766 0.390991Z" stroke="black" stroke-width="0.7" stroke-linecap="round"/>
<path d="M12.6041 17.189C15.7773 17.189 18.3497 14.7354 18.3497 11.7088C18.3497 8.68219 15.7773 6.22862 12.6041 6.22862C9.43084 6.22862 6.85841 8.68219 6.85841 11.7088C6.85841 14.7354 9.43084 17.189 12.6041 17.189Z" stroke="black" stroke-width="0.7" stroke-linecap="round"/>
<path d="M19.5988 5.27552C20.0817 5.27552 20.4731 4.90215 20.4731 4.44158C20.4731 3.981 20.0817 3.60764 19.5988 3.60764C19.1159 3.60764 18.7245 3.981 18.7245 4.44158C18.7245 4.90215 19.1159 5.27552 19.5988 5.27552Z" stroke="black" stroke-width="0.7"/>
</svg>
