<svg width="23" height="22" viewBox="0 0 23 22" fill="none" xmlns="http://www.w3.org/2000/svg">
<g clip-path="url(#clip0)">
<path d="M19.9219 0H3.07812C1.65655 0 0.5 1.15655 0.5 2.57812V6.01562H2.21875V2.57812C2.21875 2.10427 2.60427 1.71875 3.07812 1.71875H19.9219C20.3957 1.71875 20.7812 2.10427 20.7812 2.57812V19.4219C20.7812 19.8957 20.3957 20.2812 19.9219 20.2812H3.07812C2.60427 20.2812 2.21875 19.8957 2.21875 19.4219V15.9844H0.5V19.4219C0.5 20.8435 1.65655 22 3.07812 22H19.9219C21.3435 22 22.5 20.8435 22.5 19.4219V2.57812C22.5 1.15655 21.3435 0 19.9219 0Z" fill="white"/>
<path d="M10.8125 5.65967L9.59717 6.875L12.8628 10.1406H0.5V11.8594H12.8628L9.59717 15.125L10.8125 16.3403L16.1528 11L10.8125 5.65967Z" fill="white"/>
</g>
<defs>
<clipPath id="clip0">
<rect width="22" height="22" fill="white" transform="translate(0.5)"/>
</clipPath>
</defs>
</svg>
