<svg width="22" height="22" viewBox="0 0 22 22" fill="none" xmlns="http://www.w3.org/2000/svg">
<g clip-path="url(#clip0)">
<path d="M3.18078 14.2218C4.33241 13.0237 5.70316 12.1368 7.19872 11.5999C5.59693 10.4522 4.54458 8.53136 4.54458 6.35938C4.54458 2.85282 7.28678 0 10.6573 0C14.0279 0 16.7701 2.85282 16.7701 6.35938C16.7701 8.53136 15.7178 10.4522 14.1159 11.5999C15.6115 12.1368 16.9822 13.0237 18.1339 14.2218C20.1309 16.2995 21.2308 19.0618 21.2308 22H19.5787C19.5787 16.8823 15.5766 12.7188 10.6573 12.7188C5.7381 12.7188 1.73602 16.8823 1.73602 22H0.0839195C0.0839195 19.0618 1.18376 16.2995 3.18078 14.2218ZM10.6573 11C13.1169 11 15.118 8.91825 15.118 6.35938C15.118 3.8005 13.1169 1.71875 10.6573 1.71875C8.19774 1.71875 6.19668 3.8005 6.19668 6.35938C6.19668 8.91825 8.19774 11 10.6573 11Z" fill="#0E6E6D"/>
</g>
<defs>
<clipPath id="clip0">
<rect width="21.1469" height="22" fill="white" transform="matrix(-1 0 0 1 21.2308 0)"/>
</clipPath>
</defs>
</svg>
