<svg width="24" height="22" viewBox="0 0 24 22" fill="none" xmlns="http://www.w3.org/2000/svg">
<path d="M10.7526 18.5625H12.562V13.4062H10.7526V18.5625ZM17.0856 9.96875V5.15625C17.0856 2.31309 14.6505 0 11.6573 0C8.66409 0 6.22899 2.31309 6.22899 5.15625V9.96875C4.7324 9.96875 3.51483 11.1253 3.51483 12.5469V19.4219C3.51483 20.8435 4.7324 22 6.22899 22H17.0856C18.5822 22 19.7998 20.8435 19.7998 19.4219V12.5469C19.7998 11.1253 18.5822 9.96875 17.0856 9.96875ZM8.03843 5.15625C8.03843 3.26081 9.66186 1.71875 11.6573 1.71875C13.6528 1.71875 15.2762 3.26081 15.2762 5.15625V9.96875H8.03843V5.15625ZM17.9904 19.4219C17.9904 19.8957 17.5845 20.2812 17.0856 20.2812H6.22899C5.73013 20.2812 5.32427 19.8957 5.32427 19.4219V12.5469C5.32427 12.073 5.73013 11.6875 6.22899 11.6875H17.0856C17.5845 11.6875 17.9904 12.073 17.9904 12.5469V19.4219Z" fill="#0E6E6D"/>
</svg>
